{
  "accessors": [
    {
      "bufferView": 2,
      "componentType": 5126,
      "count": 1566,
      "max": [
        29.975534439086914,
        29.98776626586914,
        30.0
      ],
      "min": [
        -29.975536346435547,
        -29.938861846923828,
        -30.0
      ],
      "type": "VEC3"
    },
    {
      "bufferView": 2,
      "byteOffset": 18792,
      "componentType": 5126,
      "count": 1566,
      "max": [
        0.9991862177848816,
        0.99959397315979,
        1.0
      ],
      "min": [
        -0.9991863369941711,
        -0.9979637265205383,
        -1.0
      ],
      "type": "VEC3"
    },
    {
      "bufferView": 1,
      "componentType": 5126,
      "count": 1566,
      "max": [
        0.9999997019767761,
        1.0
      ],
      "min": [
        0.0,
        0.018182039260864258
      ],
      "type": "VEC2"
    },
    {
      "bufferView": 1,
      "byteOffset": 12528,
      "componentType": 5126,
      "count": 1566,
      "max": [
        0.9999997019767761,
        1.0
      ],
      "min": [
        0.0,
        0.018182039260864258
      ],
      "type": "VEC2"
    },
    {
      "bufferView": 0,
      "componentType": 5125,
      "count": 8580,
      "type": "SCALAR"
    },
    {
      "bufferView": 3,
      "componentType": 5126,
      "count": 4001,
      "max": [
        133.3333282470703
      ],
      "min": [
        0.0
      ],
      "type": "SCALAR"
    },
    {
      "bufferView": 4,
      "componentType": 5126,
      "count": 4001,
      "max": [
        0.49994778633117676,
        0.7071067690849304,
        0.7071067690849304,
        0.7071067690849304
      ],
      "min": [
        -0.7071067690849304,
        -0.4995342493057251,
        -0.4995342493057251,
        -0.49994778633117676
      ],
      "type": "VEC4"
    }
  ],
  "animations": [
    {
      "channels": [
        {
          "sampler": 0,
          "target": {
            "node": 4,
            "path": "rotation"
          }
        }
      ],
      "name": "Take 001",
      "samplers": [
        {
          "input": 5,
          "interpolation": "LINEAR",
          "output": 6
        }
      ]
    }
  ],
  "asset": {
    "extras": {
      "author": "pinotoon (https://sketchfab.com/pinotoon)",
      "license": "SKETCHFAB Standard (https://sketchfab.com/licenses)",
      "source": "https://sketchfab.com/3d-models/sun-e411e988f6b64947a6265463429c570e",
      "title": "Sun"
    },
    "generator": "Sketchfab-12.66.0",
    "version": "2.0"
  },
  "bufferViews": [
    {
      "buffer": 0,
      "byteLength": 34320,
      "name": "floatBufferViews",
      "target": 34963
    },
    {
      "buffer": 0,
      "byteLength": 25056,
      "byteOffset": 34320,
      "byteStride": 8,
      "name": "floatBufferViews",
      "target": 34962
    },
    {
      "buffer": 0,
      "byteLength": 37584,
      "byteOffset": 59376,
      "byteStride": 12,
      "name": "floatBufferViews",
      "target": 34962
    },
    {
      "buffer": 0,
      "byteLength": 16004,
      "byteOffset": 96960,
      "name": "floatBufferViews"
    },
    {
      "buffer": 0,
      "byteLength": 64016,
      "byteOffset": 112964,
      "byteStride": 16,
      "name": "floatBufferViews"
    }
  ],
  "buffers": [
    {
      "byteLength": 176980,
      "uri": "sceneSun.bin"
    }
  ],
  "images": [
    {
      "uri": "texturesSun/01_-_Default_baseColor.jpeg"
    }
  ],
  "materials": [
    {
      "doubleSided": true,
      "emissiveFactor": [
        1.0,
        1.0,
        1.0
      ],
      "emissiveTexture": {
        "index": 0
      },
      "name": "01_-_Default",
      "pbrMetallicRoughness": {
        "baseColorTexture": {
          "index": 0
        },
        "metallicFactor": 0.0,
        "roughnessFactor": 0.6
      }
    }
  ],
  "meshes": [
    {
      "name": "Sphere001_01 - Default_0",
      "primitives": [
        {
          "attributes": {
            "NORMAL": 1,
            "POSITION": 0,
            "TEXCOORD_0": 2,
            "TEXCOORD_1": 3
          },
          "indices": 4,
          "material": 0,
          "mode": 4
        }
      ]
    }
  ],
  "nodes": [
    {
      "children": [
        1
      ],
      "matrix": [
        1.0,
        0.0,
        0.0,
        0.0,
        0.0,
        2.220446049250313e-16,
        -1.0,
        0.0,
        0.0,
        1.0,
        2.220446049250313e-16,
        0.0,
        0.0,
        0.0,
        0.0,
        1.0
      ],
      "name": "Sketchfab_model"
    },
    {
      "children": [
        2
      ],
      "matrix": [
        1.0,
        0.0,
        0.0,
        0.0,
        0.0,
        0.0,
        1.0,
        0.0,
        0.0,
        -1.0,
        0.0,
        0.0,
        0.0,
        0.0,
        0.0,
        1.0
      ],
      "name": "354182bbcaf14773b2e3a50f808276bf.fbx"
    },
    {
      "children": [
        3
      ],
      "name": "Object_2"
    },
    {
      "children": [
        4
      ],
      "name": "RootNode"
    },
    {
      "children": [
        5
      ],
      "name": "Sphere001",
      "rotation": [
        -0.7071068286895752,
        -0.0,
        0.0,
        0.7071068286895752
      ],
      "translation": [
        -0.7792207598686218,
        0.0,
        -0.7792207598686218
      ]
    },
    {
      "mesh": 0,
      "name": "Sphere001_01 - Default_0"
    }
  ],
  "samplers": [
    {
      "magFilter": 9729,
      "minFilter": 9987,
      "wrapS": 10497,
      "wrapT": 10497
    }
  ],
  "scene": 0,
  "scenes": [
    {
      "name": "Sketchfab_Scene",
      "nodes": [
        0
      ]
    }
  ],
  "textures": [
    {
      "sampler": 0,
      "source": 0
    }
  ]
}
